<?xml version="1.0" encoding="utf-8"?>
<!-- Generator: Adobe Illustrator 19.2.0, SVG Export Plug-In . SVG Version: 6.00 Build 0)  -->
<svg version="1.1" id="Layer_1" xmlns="http://www.w3.org/2000/svg" xmlns:xlink="http://www.w3.org/1999/xlink" x="0px" y="0px"
	 viewBox="0 0 333.116 167.833" style="enable-background:new 0 0 333.116 167.833;" xml:space="preserve">
<g>
	<g>
		<path style="fill:#FFFFFF;" d="M134.618,60.912h-20.572V20.572H77.63L91.82,34.67c4.397,4.367,5.713,10.894,3.35,16.627
			c-2.363,5.731-7.896,9.435-14.095,9.435H0V40.16h68.158l-14.19-14.098c-4.397-4.369-5.712-10.896-3.349-16.628
			C52.983,3.703,58.517,0,64.716,0h88.489v20.572h-18.587V60.912z M116.212,58.747h16.241V18.406h18.587V2.165H64.716
			c-5.318,0-10.066,3.177-12.093,8.094c-2.028,4.917-0.901,10.517,2.873,14.266l17.914,17.8H2.165v16.241h78.908
			c5.319,0,10.066-3.178,12.093-8.096c2.028-4.918,0.9-10.517-2.874-14.265l-17.914-17.8h43.832V58.747z"/>
		<path style="fill:#FFFFFF;" d="M331.673,126.552h-20.572v-20.527h-18.406v20.527h-50.411c-16.681,0-30.252-13.602-30.252-30.32
			c0-16.938,13.571-30.718,30.252-30.718h21.9v20.572h-21.9c-5.248,0-9.68,4.646-9.68,10.147c0,5.431,4.432,10.018,9.68,10.018
			h29.839V65.514h20.572v24.271h18.406V65.514h20.572V126.552z M313.267,124.387h16.241V67.679h-16.241V91.95h-22.737V67.679
			h-16.241v40.737h-32.005c-6.421,0-11.845-5.58-11.845-12.184c0-6.674,5.424-12.312,11.845-12.312h19.734V67.679h-19.734
			c-15.487,0-28.086,12.809-28.086,28.553c0,15.524,12.599,28.154,28.086,28.154h48.246V103.86h22.737V124.387z"/>
		<path style="fill:#FFFFFF;" d="M215.269,60.903h-21.611l-3.598-11.179h-20.116l-3.598,11.179h-21.61L164.338,0h31.329
			L215.269,60.903z M195.235,58.738h17.062L194.089,2.165h-28.174l-18.208,56.572h17.061l3.598-11.179h23.271L195.235,58.738z
			 M187.803,35.649H172.2l7.802-24.241L187.803,35.649z M175.171,33.483h9.661l-4.83-15.007L175.171,33.483z"/>
		<path style="fill:#FFFFFF;" d="M148.95,126.733h-21.616l-3.514-11.234h-20.269l-3.515,11.234H78.421L98.02,65.514h31.331
			L148.95,126.733z M128.926,124.568h17.057l-18.212-56.888H99.6l-18.212,56.888h17.056l3.515-11.234h23.454L128.926,124.568z
			 M121.571,101.424H105.8l7.886-24.502L121.571,101.424z M108.771,99.259h9.829l-4.915-15.268L108.771,99.259z"/>
		<path style="fill:#FFFFFF;" d="M238.919,60.813h-20.572V0h37.354c6.468,0,12.373,2.393,16.626,6.738
			c3.946,4.031,6.05,9.44,5.926,15.23c-0.142,6.627-3.43,13.339-8.578,17.832h63.441v20.572h-69.342
			c-3.072,0-6.03-1.293-8.117-3.548l-10.835-11.709h-5.903V60.813z M220.513,58.648h16.241V42.949h9.016l11.477,12.404
			c1.678,1.813,4.057,2.853,6.527,2.853h67.176V41.965h-64.624l-1.345-1.4l1.076-0.718c5.945-3.963,9.882-10.999,10.03-17.926
			c0.112-5.203-1.773-10.057-5.309-13.669c-3.841-3.925-9.197-6.087-15.078-6.087h-35.188V58.648z M254.8,28.873h-18.046V18.406
			H254.8c2.885,0,5.233,2.348,5.233,5.233S257.685,28.873,254.8,28.873z M238.919,26.707h15.88c1.692,0,3.067-1.376,3.067-3.068
			s-1.376-3.068-3.067-3.068h-15.88V26.707z"/>
		<path style="fill:#FFFFFF;" d="M219.16,126.733h-25.757l-14.567-18.27h-7.045v18.27h-20.572V65.514h37.354
			c6.468,0,12.373,2.393,16.626,6.738c3.946,4.031,6.05,9.44,5.926,15.23c-0.147,6.858-3.648,13.164-9.43,17.097L219.16,126.733z
			 M194.445,124.568h20.25l-16.2-20.548l1.049-0.634c5.756-3.478,9.276-9.44,9.415-15.95l0,0c0.112-5.203-1.773-10.057-5.309-13.669
			c-3.841-3.925-9.197-6.087-15.078-6.087h-35.188v56.888h16.241v-18.27h10.253L194.445,124.568z M187.671,94.387h-18.046V83.92
			h18.046c2.885,0,5.233,2.348,5.233,5.233S190.557,94.387,187.671,94.387z M171.791,92.221h15.88c1.692,0,3.067-1.376,3.067-3.068
			s-1.376-3.068-3.067-3.068h-15.88V92.221z"/>
		<path style="fill:#FFFFFF;" d="M75.61,126.733H55.038v-23.385l-8.721,13.368l-13.726,0.273l-11.117-15.597v25.341H0.902V65.514
			h19.117L39.045,90.87l17.661-25.356H75.61V126.733z M57.203,124.568h16.241V67.679H57.837L39.11,94.565L18.936,67.679H3.067
			v56.888h16.241V94.623l14.382,20.179l11.438-0.228l12.075-18.508V124.568z"/>
	</g>
	<g>
		<path style="fill:#FFFFFF;" d="M78.919,150.113l-0.008,4.475l1.712,0.003c2.042,0.004,4.024-0.054,4.956-0.111l-0.007,3.813
			c-0.931-0.062-2.913-0.125-4.955-0.129l-1.712-0.003l-0.009,5.345l2.192,0.004c2.072,0.003,4.234-0.022,5.135-0.082l-0.006,3.814
			c-0.9-0.062-3.062-0.125-5.134-0.129l-6.667-0.011c0.062-1.652,0.127-4.024,0.129-5.375l0.017-9.85
			c0.003-2.072-0.053-4.444-0.111-5.345l6.426,0.011c2.042,0.003,4.204-0.083,5.135-0.142l-0.006,3.844
			c-0.931-0.091-3.093-0.125-5.135-0.129L78.919,150.113z"/>
		<path style="fill:#FFFFFF;" d="M96.134,161.764c-0.003,2.042,0.023,4.444,0.111,5.375l-4.595-0.008
			c0.092-0.931,0.156-3.333,0.159-5.375l0.018-10.09c0.003-2.042-0.053-4.205-0.142-5.105l6.427,0.011
			c4.654,0.008,7.322,2.805,7.315,6.648c-0.006,3.874-2.744,6.572-7.369,6.564l-1.922-0.003L96.134,161.764z M96.144,156.509
			l1.441,0.002c2.192,0.003,3.486-1.706,3.489-3.327c0.003-1.652-1.195-3.335-3.478-3.339l-1.441-0.002L96.144,156.509z"/>
		<path style="fill:#FFFFFF;" d="M114.961,161.796c-0.003,2.042,0.053,4.444,0.111,5.375l-4.564-0.008
			c0.062-0.931,0.125-3.333,0.129-5.375l0.017-9.819c0.003-2.042-0.053-4.475-0.111-5.375l4.564,0.008
			c-0.062,0.9-0.126,3.333-0.129,5.375L114.961,161.796z"/>
		<path style="fill:#FFFFFF;" d="M132.587,161.315c-0.006,3.844-3.014,6.361-7.188,6.354c-2.102-0.003-3.333-0.456-5.044-0.639
			l0.009-5.015c0.989,1.323,3.239,2.258,5.101,2.261c1.591,0.003,2.524-0.987,2.526-2.368c0.006-3.393-6.84-3.706-6.83-9.591
			c0.006-3.813,2.653-6.151,6.857-6.144c1.591,0.003,2.612,0.425,3.963,0.517l-0.008,4.655c-0.749-1.232-2.37-1.835-3.931-1.838
			c-1.471-0.002-2.403,0.776-2.406,2.158C125.632,154.847,132.598,155.37,132.587,161.315z"/>
		<path style="fill:#FFFFFF;" d="M148.196,146.267c6.246,0.011,10.953,4.793,10.943,10.679s-4.733,10.653-10.979,10.642
			c-6.186-0.011-10.922-4.793-10.912-10.679C137.257,151.023,142.011,146.257,148.196,146.267z M148.167,163.925
			c3.693,0.006,6.581-3.112,6.588-6.986c0.007-3.874-2.871-7.001-6.564-7.008s-6.551,3.112-6.558,6.985
			C141.626,160.79,144.473,163.918,148.167,163.925z"/>
		<path style="fill:#FFFFFF;" d="M164.524,167.256c0.092-0.931,0.156-3.333,0.159-5.375l0.017-9.819
			c0.004-2.042-0.052-4.475-0.141-5.375l7.178,0.012c5.676,0.01,10.322,4.612,10.312,10.288c-0.01,5.676-4.672,10.292-10.348,10.282
			L164.524,167.256z M169.035,163.72l2.343,0.004c3.513,0.006,6.311-3.082,6.317-6.746c0.006-3.633-2.781-6.731-6.324-6.737
			l-2.312-0.004L169.035,163.72z"/>
		<path style="fill:#FFFFFF;" d="M191.967,150.306l-0.008,4.475l1.712,0.003c2.042,0.003,4.024-0.054,4.955-0.111l-0.007,3.813
			c-0.931-0.062-2.913-0.125-4.955-0.129l-1.712-0.003l-0.009,5.345l2.192,0.004c2.072,0.003,4.234-0.022,5.135-0.082l-0.006,3.814
			c-0.9-0.062-3.062-0.125-5.135-0.129l-6.667-0.011c0.063-1.652,0.128-4.024,0.13-5.375l0.017-9.85
			c0.004-2.072-0.053-4.444-0.111-5.345l6.427,0.011c2.042,0.003,4.204-0.083,5.135-0.142l-0.007,3.844
			c-0.931-0.091-3.092-0.125-5.134-0.129L191.967,150.306z"/>
		<path style="fill:#FFFFFF;" d="M221.197,159.815l4.131-9.603c0.482-1.17,1.055-2.46,1.356-3.42l4.564,0.008
			c-0.723,1.2-1.565,2.939-2.289,4.53l-7.597,16.503l-0.721-0.001l-7.568-16.529c-0.718-1.593-1.556-3.335-2.274-4.538l4.925,0.008
			c0.269,0.991,0.776,2.253,1.285,3.396L221.197,159.815z"/>
		<path style="fill:#FFFFFF;" d="M239.718,162.009c-0.003,2.042,0.053,4.444,0.112,5.375l-4.564-0.008
			c0.061-0.931,0.125-3.333,0.128-5.375l0.017-9.819c0.004-2.042-0.052-4.475-0.109-5.375l4.564,0.008
			c-0.062,0.9-0.127,3.333-0.131,5.375L239.718,162.009z"/>
		<path style="fill:#FFFFFF;" d="M250.677,162.028c-0.003,2.042,0.053,4.444,0.112,5.375l-4.564-0.008
			c0.061-0.931,0.125-3.333,0.128-5.375l0.017-9.819c0.004-2.042-0.052-4.475-0.109-5.375l4.564,0.008
			c-0.062,0.9-0.127,3.333-0.131,5.375L250.677,162.028z"/>
		<path style="fill:#FFFFFF;" d="M261.636,162.046c-0.003,2.042,0.053,4.445,0.112,5.376l-4.564-0.008
			c0.061-0.931,0.125-3.333,0.128-5.375l0.017-9.819c0.004-2.042-0.052-4.475-0.109-5.375l4.564,0.008
			c-0.062,0.9-0.127,3.333-0.131,5.375L261.636,162.046z"/>
	</g>
	<rect x="1.635" y="157.098" style="fill:#FFFFFF;" width="59.207" height="2.345"/>
	<rect x="279.499" y="157.098" style="fill:#FFFFFF;" width="50.414" height="2.345"/>
</g>
</svg>
