<?xml version="1.0" encoding="utf-8"?>
<!-- Generator: Adobe Illustrator 19.2.0, SVG Export Plug-In . SVG Version: 6.00 Build 0)  -->
<svg version="1.1" id="Layer_1" xmlns="http://www.w3.org/2000/svg" xmlns:xlink="http://www.w3.org/1999/xlink" x="0px" y="0px"
	 viewBox="0 0 701.058 80.51" style="enable-background:new 0 0 701.058 80.51;" xml:space="preserve">
<g>
	<g>
		<path style="fill:#FFFFFF;" d="M60.508,51.749l-8.415-16.106c-0.925-1.792-1.59-2.949-2.313-4.048h4.973
			c0.347,0.925,0.839,1.995,1.475,3.239l5.031,10.178l2.082-4.54l-2.458-4.857c-1.07-2.082-1.533-2.921-2.342-4.02h4.54
			c0.26,0.781,0.665,1.706,1.62,3.557l0.578,1.186l0.549-1.215c0.81-1.763,1.272-2.804,1.562-3.527h4.077
			c-0.579,0.896-1.157,1.937-2.227,4.02l-2.198,4.337l2.313,4.771l4.337-9.224c1.07-2.139,1.475-3.151,1.706-3.903h4.337
			c-0.694,1.214-1.214,2.14-2.197,4.135l-8.067,16.02h-0.376l-4.02-7.895l-4.019,7.895H60.508z"/>
		<path style="fill:#FFFFFF;" d="M87.862,39.199h8.415V36.77c0-1.648-0.029-3.961-0.116-5.176h4.424
			c-0.058,1.272-0.145,3.585-0.145,5.176v10.467c0,1.504,0.087,3.354,0.145,4.164h-4.424c0.058-0.81,0.116-2.66,0.116-4.192V42.64
			h-8.415v4.597c0,1.504,0.029,3.354,0.087,4.164h-4.366c0.058-0.81,0.116-2.66,0.116-4.192V36.77c0-2.053-0.058-4.395-0.116-5.176
			h4.366c-0.058,0.781-0.087,3.123-0.087,5.176V39.199z"/>
		<path style="fill:#FFFFFF;" d="M119.439,51.401c-0.231-0.665-0.607-1.59-0.983-2.458l-0.896-2.14h-6.882l-0.896,2.054
			c-0.434,1.012-0.723,1.764-0.983,2.544h-4.424c0.723-1.272,1.503-2.718,2.227-4.395l7.171-15.759h1.157l7.374,15.759
			c0.781,1.647,1.648,3.209,2.342,4.395H119.439z M114.118,38.476l-2.053,4.944h4.106L114.118,38.476z"/>
		<path style="fill:#FFFFFF;" d="M136.21,31.594c1.995,0,4.279-0.058,5.147-0.116v3.672c-0.868-0.058-3.152-0.116-5.147-0.116
			h-1.272c-0.029,1.07-0.029,2.516-0.029,3.701v7.489c0,1.967,0.058,4.279,0.145,5.176H130.6c0.058-0.896,0.115-3.209,0.115-5.176
			v-7.489c0-1.186-0.029-2.631-0.086-3.701h-1.272c-1.966,0-4.222,0.059-5.089,0.116v-3.672c0.867,0.058,3.123,0.116,5.089,0.116
			H136.21z"/>
		<path style="fill:#FFFFFF;" d="M164.865,45.734c0,3.701-2.892,6.13-6.911,6.13c-2.024,0-3.21-0.434-4.858-0.607v-4.829
			c0.954,1.272,3.123,2.169,4.916,2.169c1.533,0,2.429-0.954,2.429-2.284c0-3.268-6.592-3.557-6.592-9.224
			c0-3.672,2.544-5.928,6.592-5.928c1.533,0,2.516,0.405,3.817,0.492v4.481c-0.723-1.185-2.284-1.763-3.788-1.763
			c-1.417,0-2.313,0.751-2.313,2.082C158.157,39.517,164.865,40.008,164.865,45.734z"/>
		<path style="fill:#FFFFFF;" d="M174.263,46.225c0,1.967,0.058,4.279,0.115,5.176h-4.395c0.058-0.896,0.116-3.209,0.116-5.176
			V36.77c0-1.966-0.058-4.308-0.116-5.176h4.395c-0.058,0.868-0.115,3.209-0.115,5.176V46.225z"/>
		<path style="fill:#FFFFFF;" d="M180.422,51.401c0.087-0.896,0.145-3.209,0.145-5.176V36.77c0-1.966-0.058-4.308-0.145-5.176h6.911
			c5.465,0,9.947,4.424,9.947,9.889s-4.482,9.918-9.947,9.918H180.422z M184.759,47.989h2.255c3.383,0,6.072-2.978,6.072-6.506
			c0-3.499-2.689-6.477-6.101-6.477h-2.227V47.989z"/>
		<path style="fill:#FFFFFF;" d="M206.822,35.035v4.309h1.648c1.966,0,3.875-0.058,4.771-0.115V42.9
			c-0.896-0.058-2.805-0.115-4.771-0.115h-1.648v5.146h2.111c1.995,0,4.077-0.028,4.944-0.087v3.673
			c-0.867-0.059-2.949-0.116-4.944-0.116h-6.419c0.058-1.59,0.116-3.874,0.116-5.176v-9.484c0-1.995-0.058-4.279-0.116-5.146h6.188
			c1.966,0,4.048-0.086,4.945-0.145v3.701c-0.896-0.087-2.979-0.116-4.945-0.116H206.822z"/>
		<path style="fill:#FFFFFF;" d="M236.692,31.218c6.015,0,10.554,4.598,10.554,10.265c0,5.668-4.54,10.266-10.554,10.266
			c-5.957,0-10.525-4.598-10.525-10.266C226.167,35.816,230.736,31.218,236.692,31.218z M236.692,48.22
			c3.557,0,6.333-3.007,6.333-6.737c0-3.729-2.776-6.737-6.333-6.737s-6.304,3.007-6.304,6.737
			C230.388,45.213,233.135,48.22,236.692,48.22z"/>
		<path style="fill:#FFFFFF;" d="M252.567,46.225V36.77c0-1.995-0.058-4.308-0.116-5.176h6.275c1.966,0,3.961-0.058,4.858-0.116
			v3.672c-0.896-0.087-2.892-0.116-4.858-0.116h-1.966v5.061h1.677c1.908,0,3.441-0.058,4.308-0.115v3.672
			c-0.867-0.087-2.4-0.116-4.308-0.116h-1.677v2.689c0,1.967,0.058,4.279,0.116,5.176h-4.424
			C252.509,50.504,252.567,48.192,252.567,46.225z"/>
		<path style="fill:#FFFFFF;" d="M287.063,31.594c1.995,0,4.279-0.058,5.147-0.116v3.672c-0.868-0.058-3.152-0.116-5.147-0.116
			h-1.272c-0.029,1.07-0.029,2.516-0.029,3.701v7.489c0,1.967,0.058,4.279,0.145,5.176h-4.453c0.058-0.896,0.115-3.209,0.115-5.176
			v-7.489c0-1.186-0.029-2.631-0.086-3.701h-1.272c-1.966,0-4.222,0.059-5.089,0.116v-3.672c0.867,0.058,3.123,0.116,5.089,0.116
			H287.063z"/>
		<path style="fill:#FFFFFF;" d="M300.683,39.199h8.415V36.77c0-1.648-0.029-3.961-0.116-5.176h4.424
			c-0.058,1.272-0.145,3.585-0.145,5.176v10.467c0,1.504,0.087,3.354,0.145,4.164h-4.424c0.058-0.81,0.116-2.66,0.116-4.192V42.64
			h-8.415v4.597c0,1.504,0.029,3.354,0.087,4.164h-4.366c0.058-0.81,0.116-2.66,0.116-4.192V36.77c0-2.053-0.058-4.395-0.116-5.176
			h4.366c-0.058,0.781-0.087,3.123-0.087,5.176V39.199z"/>
		<path style="fill:#FFFFFF;" d="M323.729,35.035v4.309h1.648c1.966,0,3.875-0.058,4.771-0.115V42.9
			c-0.896-0.058-2.805-0.115-4.771-0.115h-1.648v5.146h2.111c1.995,0,4.077-0.028,4.944-0.087v3.673
			c-0.867-0.059-2.949-0.116-4.944-0.116h-6.419c0.058-1.59,0.116-3.874,0.116-5.176v-9.484c0-1.995-0.058-4.279-0.116-5.146h6.188
			c1.966,0,4.048-0.086,4.945-0.145v3.701c-0.896-0.087-2.979-0.116-4.945-0.116H323.729z"/>
		<path style="fill:#FFFFFF;" d="M343.97,46.225V36.77c0-1.995-0.058-4.308-0.116-5.176h6.274c1.967,0,3.961-0.058,4.857-0.116
			v3.672c-0.896-0.087-2.891-0.116-4.857-0.116h-1.966v5.061h1.677c1.908,0,3.44-0.058,4.309-0.115v3.672
			c-0.868-0.087-2.4-0.116-4.309-0.116h-1.677v2.689c0,1.967,0.058,4.279,0.115,5.176h-4.424
			C343.912,50.504,343.97,48.192,343.97,46.225z"/>
		<path style="fill:#FFFFFF;" d="M369.503,31.218c6.015,0,10.554,4.598,10.554,10.265c0,5.668-4.539,10.266-10.554,10.266
			c-5.957,0-10.525-4.598-10.525-10.266C358.977,35.816,363.546,31.218,369.503,31.218z M369.503,48.22
			c3.557,0,6.332-3.007,6.332-6.737c0-3.729-2.775-6.737-6.332-6.737s-6.304,3.007-6.304,6.737
			C363.199,45.213,365.946,48.22,369.503,48.22z"/>
		<path style="fill:#FFFFFF;" d="M389.598,46.283c0,1.967,0.029,4.222,0.115,5.118h-4.424c0.087-0.896,0.145-3.151,0.145-5.118
			V36.77c0-1.966-0.058-4.308-0.145-5.176h5.928c4.742,0,7.345,2.603,7.345,6.187c0,3.123-1.821,4.714-3.903,5.379
			c2.255,2.544,4.424,5.956,6.91,8.24h-5.465c-1.272-1.562-3.788-5.118-5.002-7.575c-0.203,0.028-0.376,0.028-0.55,0.028h-0.954
			V46.283z M389.598,40.876h1.591c1.879,0,3.181-1.243,3.181-2.978c0-1.562-1.128-3.007-3.354-3.007h-1.417V40.876z"/>
		<path style="fill:#FFFFFF;" d="M414.438,48.133c1.851,0,3.585-0.521,4.828-1.677v4.568c-1.677,0.289-2.747,0.724-5.204,0.724
			c-6.159,0-10.525-4.598-10.525-10.294c0-5.639,4.366-10.236,10.525-10.236c2.516,0,3.527,0.463,4.973,0.636v4.713
			c-1.214-1.157-2.862-1.706-4.655-1.706c-3.759,0-6.679,2.949-6.679,6.593C407.701,45.127,410.621,48.133,414.438,48.133z"/>
		<path style="fill:#FFFFFF;" d="M428.635,35.035v4.309h1.648c1.967,0,3.875-0.058,4.771-0.115V42.9
			c-0.896-0.058-2.805-0.115-4.771-0.115h-1.648v5.146h2.111c1.995,0,4.077-0.028,4.944-0.087v3.673
			c-0.867-0.059-2.949-0.116-4.944-0.116h-6.419c0.058-1.59,0.115-3.874,0.115-5.176v-9.484c0-1.995-0.058-4.279-0.115-5.146h6.188
			c1.966,0,4.048-0.086,4.944-0.145v3.701c-0.896-0.087-2.979-0.116-4.944-0.116H428.635z"/>
		<path style="fill:#FFFFFF;" d="M453.156,46.225c0,1.967,0.058,4.279,0.116,5.176h-4.396c0.058-0.896,0.116-3.209,0.116-5.176
			V36.77c0-1.966-0.059-4.308-0.116-5.176h4.396c-0.059,0.868-0.116,3.209-0.116,5.176V46.225z"/>
		<path style="fill:#FFFFFF;" d="M470.131,45.734c0,3.701-2.892,6.13-6.911,6.13c-2.023,0-3.209-0.434-4.857-0.607v-4.829
			c0.954,1.272,3.123,2.169,4.916,2.169c1.532,0,2.429-0.954,2.429-2.284c0-3.268-6.593-3.557-6.593-9.224
			c0-3.672,2.544-5.928,6.593-5.928c1.532,0,2.516,0.405,3.816,0.492v4.481c-0.723-1.185-2.284-1.763-3.788-1.763
			c-1.417,0-2.312,0.751-2.312,2.082C463.423,39.517,470.131,40.008,470.131,45.734z"/>
		<path style="fill:#FFFFFF;" d="M494.592,45.734c0,3.701-2.892,6.13-6.911,6.13c-2.023,0-3.209-0.434-4.857-0.607v-4.829
			c0.954,1.272,3.123,2.169,4.915,2.169c1.533,0,2.43-0.954,2.43-2.284c0-3.268-6.593-3.557-6.593-9.224
			c0-3.672,2.544-5.928,6.593-5.928c1.532,0,2.516,0.405,3.816,0.492v4.481c-0.723-1.185-2.284-1.763-3.788-1.763
			c-1.417,0-2.312,0.751-2.312,2.082C487.884,39.517,494.592,40.008,494.592,45.734z"/>
		<path style="fill:#FFFFFF;" d="M509.919,31.594c1.995,0,4.279-0.058,5.146-0.116v3.672c-0.867-0.058-3.151-0.116-5.146-0.116
			h-1.272c-0.029,1.07-0.029,2.516-0.029,3.701v7.489c0,1.967,0.058,4.279,0.145,5.176h-4.453c0.059-0.896,0.116-3.209,0.116-5.176
			v-7.489c0-1.186-0.029-2.631-0.087-3.701h-1.272c-1.966,0-4.222,0.059-5.089,0.116v-3.672c0.867,0.058,3.123,0.116,5.089,0.116
			H509.919z"/>
		<path style="fill:#FFFFFF;" d="M523.538,46.283c0,1.967,0.029,4.222,0.115,5.118h-4.424c0.087-0.896,0.145-3.151,0.145-5.118
			V36.77c0-1.966-0.058-4.308-0.145-5.176h5.928c4.742,0,7.345,2.603,7.345,6.187c0,3.123-1.821,4.714-3.903,5.379
			c2.255,2.544,4.424,5.956,6.91,8.24h-5.465c-1.272-1.562-3.788-5.118-5.002-7.575c-0.203,0.028-0.376,0.028-0.55,0.028h-0.954
			V46.283z M523.538,40.876h1.591c1.879,0,3.181-1.243,3.181-2.978c0-1.562-1.128-3.007-3.354-3.007h-1.417V40.876z"/>
		<path style="fill:#FFFFFF;" d="M547.972,31.218c6.015,0,10.554,4.598,10.554,10.265c0,5.668-4.539,10.266-10.554,10.266
			c-5.957,0-10.525-4.598-10.525-10.266C537.447,35.816,542.015,31.218,547.972,31.218z M547.972,48.22
			c3.557,0,6.332-3.007,6.332-6.737c0-3.729-2.775-6.737-6.332-6.737s-6.304,3.007-6.304,6.737
			C541.669,45.213,544.416,48.22,547.972,48.22z"/>
		<path style="fill:#FFFFFF;" d="M567.954,51.401h-4.222c0.058-0.81,0.115-2.66,0.115-4.192V36.857c0-1.735-0.058-4.106-0.115-5.667
			h0.896c1.271,1.359,1.995,2.053,2.92,2.949l8.819,9.167V36.77c0-1.648-0.029-3.961-0.087-5.176h4.222
			c-0.058,1.272-0.145,3.585-0.145,5.176v10.525c0,1.214,0.029,2.775,0.145,4.453h-0.867c-0.867-0.983-1.591-1.765-2.516-2.689
			l-9.253-9.542l-0.029,7.72C567.838,48.741,567.895,50.591,567.954,51.401z"/>
		<path style="fill:#FFFFFF;" d="M602.102,50.823c-1.765,0.376-2.689,0.926-5.581,0.926c-6.448,0-10.728-4.598-10.728-10.266
			c0-5.667,4.192-10.265,10.641-10.265c2.371,0,3.47,0.376,5.061,0.723v4.626c-1.359-1.302-3.008-1.764-4.887-1.764
			c-3.933,0-6.622,2.95-6.622,6.679c0,3.73,2.892,6.709,6.563,6.709c0.666,0,1.244-0.059,1.591-0.289v-1.967
			c0-1.995-0.058-2.862-0.115-3.73h4.192c-0.087,0.868-0.115,1.88-0.115,3.847V50.823z"/>
		<path style="fill:#FFFFFF;" d="M612.281,35.035v4.309h1.648c1.967,0,3.875-0.058,4.771-0.115V42.9
			c-0.896-0.058-2.805-0.115-4.771-0.115h-1.648v5.146h2.111c1.995,0,4.077-0.028,4.944-0.087v3.673
			c-0.867-0.059-2.949-0.116-4.944-0.116h-6.419c0.058-1.59,0.115-3.874,0.115-5.176v-9.484c0-1.995-0.058-4.279-0.115-5.146h6.188
			c1.967,0,4.048-0.086,4.944-0.145v3.701c-0.896-0.087-2.978-0.116-4.944-0.116H612.281z"/>
		<path style="fill:#FFFFFF;" d="M628.879,46.283c0,1.967,0.029,4.222,0.116,5.118h-4.425c0.087-0.896,0.145-3.151,0.145-5.118
			V36.77c0-1.966-0.058-4.308-0.145-5.176h5.928c4.742,0,7.345,2.603,7.345,6.187c0,3.123-1.821,4.714-3.903,5.379
			c2.255,2.544,4.424,5.956,6.91,8.24h-5.465c-1.272-1.562-3.788-5.118-5.002-7.575c-0.203,0.028-0.376,0.028-0.55,0.028h-0.954
			V46.283z M628.879,40.876h1.591c1.879,0,3.181-1.243,3.181-2.978c0-1.562-1.128-3.007-3.354-3.007h-1.417V40.876z"/>
	</g>
	<polygon style="fill:none;stroke:#FFFFFF;stroke-miterlimit:10;" points="700.481,40.255 677.528,80.01 23.53,80.01 0.577,40.255 
		23.53,0.5 677.528,0.5 	"/>
</g>
</svg>
