<?xml version="1.0" encoding="utf-8"?>
<!-- Generator: Adobe Illustrator 19.2.0, SVG Export Plug-In . SVG Version: 6.00 Build 0)  -->
<svg version="1.1" id="Layer_1" xmlns="http://www.w3.org/2000/svg" xmlns:xlink="http://www.w3.org/1999/xlink" x="0px" y="0px"
	 viewBox="0 0 182.421 236.324" style="enable-background:new 0 0 182.421 236.324;" xml:space="preserve">
<g>
	<polygon style="fill:#FFFFFF;" points="153.471,221.363 144.833,236.324 37.589,236.324 28.951,221.363 37.589,206.401 
		144.833,206.401 	"/>
	<polygon style="fill:#FFFFFF;" points="91.211,0 155.706,26.715 182.421,91.211 155.706,155.706 91.211,182.421 26.715,155.706 
		0,91.211 26.715,26.715 	"/>
	<g>
		<path style="fill:#0A9A85;" d="M56.918,225.154h1.276c0.88,0,1.786-0.013,2.168-0.038v1.646c-0.383-0.025-1.289-0.051-2.168-0.051
			h-3.176c0.025-0.701,0.051-1.709,0.051-2.283v-4.172c0-0.88-0.025-1.9-0.051-2.283h1.952c-0.025,0.383-0.051,1.403-0.051,2.283
			V225.154z"/>
		<path style="fill:#0A9A85;" d="M64.135,224.427c0,0.867,0.025,1.888,0.051,2.283h-1.939c0.025-0.396,0.051-1.416,0.051-2.283
			v-4.172c0-0.867-0.026-1.9-0.051-2.283h1.939c-0.025,0.383-0.051,1.416-0.051,2.283V224.427z"/>
		<path style="fill:#0A9A85;" d="M73.738,226.455c-0.778,0.166-1.187,0.408-2.462,0.408c-2.845,0-4.732-2.028-4.732-4.528
			c0-2.501,1.85-4.529,4.694-4.529c1.046,0,1.53,0.166,2.232,0.319v2.041c-0.599-0.574-1.327-0.778-2.156-0.778
			c-1.735,0-2.921,1.302-2.921,2.947s1.275,2.959,2.896,2.959c0.293,0,0.548-0.025,0.702-0.128v-0.867
			c0-0.88-0.025-1.263-0.051-1.646h1.85c-0.038,0.383-0.051,0.829-0.051,1.696V226.455z"/>
		<path style="fill:#0A9A85;" d="M78.236,221.328h3.712v-1.072c0-0.727-0.013-1.747-0.051-2.283h1.952
			c-0.026,0.562-0.064,1.582-0.064,2.283v4.618c0,0.663,0.038,1.479,0.064,1.837h-1.952c0.026-0.357,0.051-1.174,0.051-1.85v-2.016
			h-3.712v2.028c0,0.663,0.013,1.479,0.039,1.837h-1.926c0.025-0.357,0.051-1.174,0.051-1.85v-4.605
			c0-0.905-0.025-1.938-0.051-2.283h1.926c-0.025,0.345-0.039,1.378-0.039,2.283V221.328z"/>
		<path style="fill:#0A9A85;" d="M90.975,217.972c0.88,0,1.888-0.025,2.271-0.051v1.62c-0.383-0.025-1.39-0.051-2.271-0.051h-0.562
			c-0.013,0.472-0.013,1.109-0.013,1.633v3.304c0,0.867,0.026,1.888,0.064,2.283h-1.964c0.025-0.396,0.051-1.416,0.051-2.283v-3.304
			c0-0.523-0.013-1.161-0.038-1.633h-0.562c-0.867,0-1.862,0.025-2.245,0.051v-1.62c0.383,0.025,1.378,0.051,2.245,0.051H90.975z"/>
		<path style="fill:#0A9A85;" d="M103.61,224.21c0,1.633-1.276,2.704-3.049,2.704c-0.893,0-1.416-0.191-2.143-0.268v-2.131
			c0.421,0.562,1.377,0.957,2.168,0.957c0.676,0,1.071-0.421,1.071-1.008c0-1.441-2.908-1.569-2.908-4.069
			c0-1.62,1.123-2.615,2.908-2.615c0.676,0,1.11,0.179,1.684,0.217v1.978c-0.319-0.523-1.008-0.778-1.671-0.778
			c-0.625,0-1.021,0.332-1.021,0.919C100.651,221.467,103.61,221.684,103.61,224.21z"/>
		<path style="fill:#0A9A85;" d="M107.752,224.427c0,0.867,0.025,1.888,0.051,2.283h-1.939c0.025-0.396,0.051-1.416,0.051-2.283
			v-4.172c0-0.867-0.026-1.9-0.051-2.283h1.939c-0.025,0.383-0.051,1.416-0.051,2.283V224.427z"/>
		<path style="fill:#0A9A85;" d="M110.467,226.71c0.038-0.396,0.063-1.416,0.063-2.283v-4.172c0-0.867-0.025-1.9-0.063-2.283h3.049
			c2.411,0,4.388,1.952,4.388,4.363c0,2.41-1.978,4.375-4.388,4.375H110.467z M112.38,225.205h0.995c1.493,0,2.679-1.314,2.679-2.87
			c0-1.544-1.186-2.857-2.691-2.857h-0.982V225.205z"/>
		<path style="fill:#0A9A85;" d="M122.108,219.491v1.9h0.727c0.868,0,1.709-0.025,2.105-0.051v1.62
			c-0.396-0.026-1.237-0.052-2.105-0.052h-0.727v2.271h0.931c0.88,0,1.799-0.014,2.182-0.039v1.62
			c-0.383-0.025-1.301-0.051-2.182-0.051h-2.832c0.025-0.701,0.051-1.709,0.051-2.283v-4.185c0-0.88-0.025-1.888-0.051-2.271h2.73
			c0.867,0,1.786-0.038,2.181-0.063v1.633c-0.396-0.038-1.314-0.051-2.181-0.051H122.108z"/>
	</g>
	<g>
		<polygon style="fill:#002E4F;" points="89.687,26.674 136.769,46.175 156.271,93.257 136.769,140.339 89.687,159.841 
			42.605,140.339 23.103,93.257 42.605,46.175 		"/>
		<polygon style="fill:#65DFB0;" points="123.491,77.027 118.344,64.601 89.687,52.731 61.031,64.601 55.883,77.027 16.113,77.027 
			23.736,95.184 51.318,100.867 58.248,115.42 58.341,115.422 61.031,121.914 89.687,133.784 118.344,121.914 121.033,115.422 
			121.126,115.42 128.057,100.867 155.638,95.184 163.261,77.027 		"/>
		<path style="fill:#0A9A85;" d="M114.738,85.24h-13.974l-4.443,8.108H83.182l-4.443-8.108H64.313l-2.832-4.574h56.411
			L114.738,85.24z M83.144,100.174l2.994,5.186h7.097l2.994-5.186H83.144z M63.959,93.406l3.74,6.478h11.635l3.74-6.478H63.959z
			 M115.415,93.406l-3.74,6.478H100.04l-3.74-6.478H115.415z M103.44,110.815l2.125,4.374l-2.68,4.528H75.581l-2.356-4.528
			l2.125-4.374c0,0-19.111-0.094-19.247,0l8.84,19.781h16.32l8.455,4.227l7.808-4.227h17.417l8.327-19.727
			C123.248,110.854,103.44,110.815,103.44,110.815z M19.557,85.251l6.628,15.616h25.087l0.048,0.101
			c0.061-0.031,0.12-0.063,0.184-0.09l-7.386-15.627H19.557z M159.817,85.251l-6.628,15.616h-25.087l7.155-15.616H159.817z"/>
	</g>
</g>
</svg>
