<?xml version="1.0" encoding="utf-8"?>
<!-- Generator: Adobe Illustrator 19.2.0, SVG Export Plug-In . SVG Version: 6.00 Build 0)  -->
<svg version="1.1" id="Layer_1" xmlns="http://www.w3.org/2000/svg" xmlns:xlink="http://www.w3.org/1999/xlink" x="0px" y="0px"
	 viewBox="0 0 182.421 236.324" style="enable-background:new 0 0 182.421 236.324;" xml:space="preserve">
<g>
	<polygon style="fill:#FFFFFF;" points="153.471,221.363 144.833,236.324 37.589,236.324 28.951,221.363 37.589,206.401 
		144.833,206.401 	"/>
	<g>
		<path style="fill:#E40066;" d="M57.435,226.71c0.039-0.396,0.064-1.416,0.064-2.283v-4.172c0-0.867-0.025-1.9-0.064-2.283h3.049
			c2.411,0,4.389,1.952,4.389,4.363c0,2.41-1.978,4.375-4.389,4.375H57.435z M59.349,225.205h0.995c1.492,0,2.679-1.314,2.679-2.87
			c0-1.544-1.187-2.857-2.691-2.857h-0.982V225.205z"/>
		<path style="fill:#E40066;" d="M72.56,226.71c-0.103-0.293-0.269-0.701-0.435-1.084l-0.395-0.944h-3.036l-0.396,0.906
			c-0.191,0.446-0.319,0.777-0.434,1.122h-1.952c0.319-0.562,0.663-1.199,0.982-1.938l3.163-6.953h0.511l3.253,6.953
			c0.344,0.727,0.727,1.415,1.033,1.938H72.56z M70.212,221.008l-0.905,2.182h1.811L70.212,221.008z"/>
		<path style="fill:#E40066;" d="M78.423,224.453c0,0.867,0.013,1.862,0.051,2.258h-1.952c0.039-0.396,0.064-1.391,0.064-2.258
			v-4.197c0-0.867-0.025-1.9-0.064-2.283h2.615c2.092,0,3.24,1.148,3.24,2.73c0,1.377-0.804,2.079-1.722,2.372
			c0.995,1.123,1.951,2.628,3.049,3.636h-2.411c-0.562-0.688-1.671-2.258-2.207-3.342c-0.089,0.013-0.166,0.013-0.242,0.013h-0.421
			V224.453z M78.423,222.067h0.701c0.829,0,1.403-0.548,1.403-1.313c0-0.689-0.497-1.327-1.479-1.327h-0.625V222.067z"/>
		<path style="fill:#E40066;" d="M87.055,222.029l1.938-2.551c0.549-0.753,0.778-1.085,1.033-1.506h2.093
			c-0.422,0.498-0.689,0.829-1.251,1.557l-2.015,2.603l2.436,2.921c0.549,0.663,0.982,1.122,1.468,1.658h-2.552
			c-0.153-0.255-0.383-0.638-0.829-1.174l-2.321-2.832v1.723c0,0.905,0.025,1.888,0.051,2.283h-1.952
			c0.026-0.396,0.052-1.378,0.052-2.283v-4.172c0-0.905-0.025-1.9-0.052-2.283h1.952c-0.025,0.383-0.051,1.378-0.051,2.283V222.029z
			"/>
		<path style="fill:#E40066;" d="M102.789,224.21c0,1.633-1.275,2.704-3.049,2.704c-0.893,0-1.416-0.191-2.144-0.268v-2.131
			c0.421,0.562,1.378,0.957,2.169,0.957c0.676,0,1.071-0.421,1.071-1.008c0-1.441-2.908-1.569-2.908-4.069
			c0-1.62,1.122-2.615,2.908-2.615c0.677,0,1.11,0.179,1.685,0.217v1.978c-0.319-0.523-1.008-0.778-1.672-0.778
			c-0.625,0-1.021,0.332-1.021,0.919C99.829,221.467,102.789,221.684,102.789,224.21z"/>
		<path style="fill:#E40066;" d="M106.931,224.427c0,0.867,0.025,1.888,0.051,2.283h-1.938c0.025-0.396,0.051-1.416,0.051-2.283
			v-4.172c0-0.867-0.025-1.9-0.051-2.283h1.938c-0.025,0.383-0.051,1.416-0.051,2.283V224.427z"/>
		<path style="fill:#E40066;" d="M109.644,226.71c0.039-0.396,0.064-1.416,0.064-2.283v-4.172c0-0.867-0.025-1.9-0.064-2.283h3.049
			c2.411,0,4.389,1.952,4.389,4.363c0,2.41-1.978,4.375-4.389,4.375H109.644z M111.559,225.205h0.995
			c1.492,0,2.679-1.314,2.679-2.87c0-1.544-1.187-2.857-2.691-2.857h-0.982V225.205z"/>
		<path style="fill:#E40066;" d="M121.287,219.491v1.9h0.727c0.867,0,1.71-0.025,2.105-0.051v1.62
			c-0.396-0.026-1.238-0.052-2.105-0.052h-0.727v2.271h0.931c0.881,0,1.799-0.014,2.182-0.039v1.62
			c-0.383-0.025-1.301-0.051-2.182-0.051h-2.832c0.026-0.701,0.052-1.709,0.052-2.283v-4.185c0-0.88-0.025-1.888-0.052-2.271h2.73
			c0.867,0,1.786-0.038,2.181-0.063v1.633c-0.395-0.038-1.313-0.051-2.181-0.051H121.287z"/>
	</g>
	<polygon style="fill:#FFFFFF;" points="91.211,0 155.706,26.715 182.421,91.211 155.706,155.706 91.211,182.421 26.715,155.706 
		0,91.211 26.715,26.715 	"/>
	<g>
		<polygon style="fill:#E40066;" points="90.529,24.547 138.412,44.381 158.246,92.264 138.412,140.147 90.529,159.981 
			42.647,140.147 22.813,92.264 42.647,44.381 		"/>
		<polygon style="fill:#6A224B;" points="147.987,134.782 124.144,72.093 121.204,53.486 91.048,40.098 91.048,40.001 90.931,40.05 
			90.813,40.001 90.813,40.098 59.933,54.614 58.823,76.312 32.871,135.012 42.311,140.538 78.342,140.883 90.199,146.293 
			103.092,140.485 138.202,140.307 		"/>
		<g>
			<polygon style="fill:#EFD1D1;" points="98.721,102.517 111.524,112.756 118.338,99.188 98.58,99.439 			"/>
			<polygon style="fill:#EFD1D1;" points="83.239,99.063 63.645,99.188 70.106,113.695 83.098,102.611 			"/>
			<polygon style="fill:#EFD1D1;" points="125.902,72.093 124.587,52.359 91.048,38.971 91.048,38.873 90.931,38.922 90.813,38.873 
				90.813,38.971 57.678,52.359 56.567,74.057 29.186,125.634 33.133,135.172 63.622,75.664 72.95,75.664 75.052,70.934 
				73.064,70.902 65.583,70.781 67.451,65 86.694,58.185 86.694,65.437 86.694,69.744 86.694,70.965 86.694,75.664 86.715,75.664 
				94.715,75.292 94.715,70.965 94.715,69.744 94.715,65.098 94.715,57.433 113.839,64.812 116.954,70.781 110.567,70.89 
				107.954,70.934 109.836,75.167 118.197,75.1 147.987,134.628 152.131,123.884 			"/>
			<polygon style="fill:#EFD1D1;" points="101.064,120.3 96.53,120.3 96.53,110.723 92.932,107.56 92.932,120.3 88.457,120.3 
				88.457,107.56 84.86,110.723 84.86,120.3 80.326,120.3 80.326,114.072 73.921,120.901 76.082,125.188 104.744,125.188 
				107.469,120.901 101.064,114.072 			"/>
			<polygon style="fill:#EFD1D1;" points="81.167,82.25 69.583,82.25 65.86,88.699 84.891,88.699 			"/>
			<polygon style="fill:#EFD1D1;" points="94.201,92.381 87.772,92.381 85.383,96.217 96.59,96.217 			"/>
			<polygon style="fill:#EFD1D1;" points="112.578,82.274 101.037,82.274 97.327,88.699 116.288,88.699 			"/>
		</g>
	</g>
</g>
</svg>
